<svg width="1120" height="680" viewBox="0 0 1120 680" fill="none" xmlns="http://www.w3.org/2000/svg">
<g opacity="0.7" clip-path="url(#clip0_14_1081)">
<path d="M437 287V267H457" stroke="white" stroke-opacity="0.9" stroke-width="4" stroke-linecap="square"/>
<path d="M663 267H683V287" stroke="white" stroke-opacity="0.9" stroke-width="4" stroke-linecap="square"/>
<path d="M663 413H683V393" stroke="white" stroke-opacity="0.9" stroke-width="4" stroke-linecap="square"/>
<path d="M457 413H437V393" stroke="white" stroke-opacity="0.9" stroke-width="4" stroke-linecap="square"/>
<path d="M560 360V340H580" stroke="white" stroke-opacity="0.8" stroke-width="4" stroke-linecap="round"/>
<path d="M562 320C562 318.895 561.104 318 560 318C558.895 318 558 318.895 558 320H560H562ZM558 336V338H562V336H560H558ZM560 320H558V336H560H562V320H560Z" fill="white" fill-opacity="0.8"/>
<path d="M556 342H558V338H556V340V342ZM540 338C538.895 338 538 338.895 538 340C538 341.105 538.895 342 540 342V340V338ZM556 340V338H540V340V342H556V340Z" fill="white" fill-opacity="0.8"/>
</g>
<path d="M480.42 640.199C479.483 640.199 478.647 640.038 477.913 639.716C477.184 639.394 476.604 638.946 476.173 638.374C475.747 637.796 475.515 637.126 475.477 636.364H477.267C477.305 636.832 477.466 637.237 477.75 637.578C478.034 637.914 478.406 638.175 478.865 638.359C479.324 638.544 479.833 638.636 480.392 638.636C481.017 638.636 481.571 638.527 482.054 638.31C482.537 638.092 482.916 637.789 483.19 637.401C483.465 637.012 483.602 636.562 483.602 636.051C483.602 635.516 483.47 635.045 483.205 634.638C482.939 634.226 482.551 633.904 482.04 633.672C481.528 633.44 480.903 633.324 480.165 633.324H479V631.761H480.165C480.742 631.761 481.249 631.657 481.685 631.449C482.125 631.241 482.468 630.947 482.714 630.568C482.965 630.189 483.091 629.744 483.091 629.233C483.091 628.741 482.982 628.312 482.764 627.947C482.546 627.583 482.239 627.299 481.841 627.095C481.448 626.892 480.984 626.79 480.449 626.79C479.947 626.79 479.473 626.882 479.028 627.067C478.588 627.247 478.228 627.509 477.949 627.855C477.67 628.196 477.518 628.608 477.494 629.091H475.79C475.818 628.329 476.048 627.661 476.479 627.088C476.91 626.51 477.473 626.061 478.169 625.739C478.87 625.417 479.639 625.256 480.477 625.256C481.377 625.256 482.149 625.438 482.793 625.803C483.437 626.162 483.931 626.638 484.277 627.23C484.623 627.822 484.795 628.461 484.795 629.148C484.795 629.967 484.58 630.665 484.149 631.243C483.723 631.821 483.143 632.221 482.409 632.443V632.557C483.328 632.708 484.045 633.099 484.561 633.729C485.077 634.354 485.335 635.128 485.335 636.051C485.335 636.842 485.12 637.552 484.689 638.182C484.263 638.807 483.68 639.299 482.942 639.659C482.203 640.019 481.363 640.199 480.42 640.199Z" fill="white"/>
<circle cx="491" cy="639" r="1" fill="white"/>
<circle cx="494.2" cy="639" r="1" fill="white"/>
<circle cx="497.4" cy="639" r="1" fill="white"/>
<path d="M502.906 640V638.722L507.707 633.466C508.27 632.85 508.734 632.315 509.099 631.861C509.463 631.402 509.733 630.971 509.909 630.568C510.088 630.161 510.178 629.735 510.178 629.29C510.178 628.778 510.055 628.336 509.809 627.962C509.568 627.588 509.236 627.299 508.815 627.095C508.393 626.892 507.92 626.79 507.394 626.79C506.836 626.79 506.348 626.906 505.931 627.138C505.519 627.365 505.2 627.685 504.972 628.097C504.75 628.509 504.639 628.991 504.639 629.545H502.962C502.962 628.693 503.159 627.945 503.552 627.301C503.945 626.657 504.48 626.155 505.157 625.795C505.839 625.436 506.604 625.256 507.451 625.256C508.303 625.256 509.059 625.436 509.717 625.795C510.375 626.155 510.891 626.641 511.265 627.251C511.639 627.862 511.826 628.542 511.826 629.29C511.826 629.825 511.729 630.348 511.535 630.859C511.346 631.366 511.014 631.932 510.541 632.557C510.072 633.177 509.421 633.935 508.587 634.83L505.32 638.324V638.438H512.082V640H502.906Z" fill="white"/>
<circle cx="518.4" cy="639" r="1" fill="white"/>
<circle cx="521.6" cy="639" r="1" fill="white"/>
<circle cx="524.8" cy="639" r="1" fill="white"/>
<path d="M535.419 625.455V640H533.658V627.301H533.573L530.022 629.659V627.869L533.658 625.455H535.419Z" fill="white"/>
<circle cx="542.8" cy="639" r="1" fill="white"/>
<circle cx="546" cy="639" r="1" fill="white"/>
<circle cx="549.2" cy="639" r="1" fill="white"/>
<path d="M560 638L567 622L560 625.368L553 622L560 638Z" fill="white" stroke="white" stroke-width="1.5" stroke-linecap="round" stroke-linejoin="round"/>
<circle cx="571" cy="639" r="1" fill="white"/>
<circle cx="574.2" cy="639" r="1" fill="white"/>
<circle cx="577.4" cy="639" r="1" fill="white"/>
<path d="M588.019 625.455V640H586.258V627.301H586.173L582.622 629.659V627.869L586.258 625.455H588.019Z" fill="white"/>
<circle cx="595.4" cy="639" r="1" fill="white"/>
<circle cx="598.6" cy="639" r="1" fill="white"/>
<circle cx="601.8" cy="639" r="1" fill="white"/>
<path d="M607.306 640V638.722L612.107 633.466C612.67 632.85 613.134 632.315 613.499 631.861C613.863 631.402 614.133 630.971 614.309 630.568C614.488 630.161 614.578 629.735 614.578 629.29C614.578 628.778 614.455 628.336 614.209 627.962C613.968 627.588 613.636 627.299 613.215 627.095C612.793 626.892 612.32 626.79 611.794 626.79C611.236 626.79 610.748 626.906 610.331 627.138C609.919 627.365 609.6 627.685 609.372 628.097C609.15 628.509 609.039 628.991 609.039 629.545H607.362C607.362 628.693 607.559 627.945 607.952 627.301C608.345 626.657 608.88 626.155 609.557 625.795C610.239 625.436 611.004 625.256 611.851 625.256C612.703 625.256 613.459 625.436 614.117 625.795C614.775 626.155 615.291 626.641 615.665 627.251C616.039 627.862 616.226 628.542 616.226 629.29C616.226 629.825 616.129 630.348 615.935 630.859C615.746 631.366 615.414 631.932 614.941 632.557C614.472 633.177 613.821 633.935 612.987 634.83L609.72 638.324V638.438H616.482V640H607.306Z" fill="white"/>
<circle cx="622.8" cy="639" r="1" fill="white"/>
<circle cx="626" cy="639" r="1" fill="white"/>
<circle cx="629.2" cy="639" r="1" fill="white"/>
<path d="M639.62 640.199C638.683 640.199 637.847 640.038 637.113 639.716C636.384 639.394 635.804 638.946 635.373 638.374C634.947 637.796 634.715 637.126 634.677 636.364H636.467C636.505 636.832 636.666 637.237 636.95 637.578C637.234 637.914 637.606 638.175 638.065 638.359C638.524 638.544 639.033 638.636 639.592 638.636C640.217 638.636 640.771 638.527 641.254 638.31C641.737 638.092 642.116 637.789 642.39 637.401C642.665 637.012 642.802 636.562 642.802 636.051C642.802 635.516 642.67 635.045 642.405 634.638C642.139 634.226 641.751 633.904 641.24 633.672C640.728 633.44 640.103 633.324 639.365 633.324H638.2V631.761H639.365C639.942 631.761 640.449 631.657 640.885 631.449C641.325 631.241 641.668 630.947 641.915 630.568C642.165 630.189 642.291 629.744 642.291 629.233C642.291 628.741 642.182 628.312 641.964 627.947C641.746 627.583 641.439 627.299 641.041 627.095C640.648 626.892 640.184 626.79 639.649 626.79C639.147 626.79 638.673 626.882 638.228 627.067C637.788 627.247 637.428 627.509 637.149 627.855C636.87 628.196 636.718 628.608 636.694 629.091H634.99C635.018 628.329 635.248 627.661 635.679 627.088C636.11 626.51 636.673 626.061 637.369 625.739C638.07 625.417 638.839 625.256 639.677 625.256C640.577 625.256 641.349 625.438 641.993 625.803C642.637 626.162 643.131 626.638 643.477 627.23C643.823 627.822 643.995 628.461 643.995 629.148C643.995 629.967 643.78 630.665 643.349 631.243C642.923 631.821 642.343 632.221 641.609 632.443V632.557C642.528 632.708 643.245 633.099 643.761 633.729C644.277 634.354 644.535 635.128 644.535 636.051C644.535 636.842 644.32 637.552 643.889 638.182C643.463 638.807 642.88 639.299 642.142 639.659C641.403 640.019 640.563 640.199 639.62 640.199Z" fill="white"/>
<rect x="463" y="40" width="60" height="26" rx="5" fill="#F4F4F4" fill-opacity="0.9"/>
<path d="M479.959 60V45.4545H482.154V51.7756H489.405V45.4545H491.607V60H489.405V53.6577H482.154V60H479.959ZM499.512 60H494.803V45.4545H499.661C501.086 45.4545 502.31 45.7457 503.333 46.3281C504.356 46.9058 505.139 47.7367 505.684 48.821C506.233 49.9006 506.508 51.1955 506.508 52.706C506.508 54.2211 506.231 55.5232 505.677 56.6122C505.127 57.7012 504.332 58.5393 503.29 59.1264C502.249 59.7088 500.989 60 499.512 60ZM496.998 58.0824H499.391C500.499 58.0824 501.42 57.8741 502.154 57.4574C502.888 57.036 503.437 56.4276 503.802 55.6321C504.166 54.8319 504.349 53.8565 504.349 52.706C504.349 51.5649 504.166 50.5966 503.802 49.8011C503.442 49.0057 502.904 48.402 502.189 47.9901C501.474 47.5781 500.587 47.3722 499.526 47.3722H496.998V58.0824Z" fill="black"/>
<rect x="530" y="40" width="60" height="26" rx="5" fill="#C5C5C5" fill-opacity="0.8"/>
<path d="M547.91 57.1591V55.3835L554.196 45.4545H555.595V48.0682H554.707L550.211 55.1847V55.2983H558.826V57.1591H547.91ZM554.806 60V56.6193L554.821 55.8097V45.4545H556.902V60H554.806ZM561.5 60V45.4545H563.695V52.4006H563.873L569.973 45.4545H572.736L566.87 52.0028L572.757 60H570.115L565.414 53.5014L563.695 55.4759V60H561.5Z" fill="black"/>
<rect x="597" y="40" width="60" height="26" rx="5" fill="#C5C5C5" fill-opacity="0.8"/>
<path d="M620.355 60.1989C619.337 60.1989 618.437 60.0237 617.656 59.6733C616.88 59.3229 616.271 58.84 615.831 58.2244C615.39 57.6089 615.173 56.9081 615.177 56.1222C615.173 55.5066 615.298 54.9408 615.554 54.4247C615.814 53.9039 616.167 53.4706 616.612 53.125C617.057 52.7746 617.554 52.5521 618.104 52.4574V52.3722C617.379 52.197 616.799 51.8087 616.363 51.2074C615.928 50.6061 615.712 49.9148 615.717 49.1335C615.712 48.3902 615.909 47.7273 616.307 47.1449C616.709 46.5578 617.261 46.0961 617.961 45.7599C618.662 45.4238 619.46 45.2557 620.355 45.2557C621.24 45.2557 622.031 45.4261 622.727 45.767C623.428 46.1032 623.979 46.5649 624.382 47.152C624.784 47.7344 624.988 48.3949 624.993 49.1335C624.988 49.9148 624.765 50.6061 624.325 51.2074C623.885 51.8087 623.312 52.197 622.606 52.3722V52.4574C623.151 52.5521 623.641 52.7746 624.077 53.125C624.517 53.4706 624.867 53.9039 625.128 54.4247C625.393 54.9408 625.528 55.5066 625.532 56.1222C625.528 56.9081 625.305 57.6089 624.865 58.2244C624.425 58.84 623.814 59.3229 623.032 59.6733C622.256 60.0237 621.363 60.1989 620.355 60.1989ZM620.355 58.402C620.956 58.402 621.477 58.3026 621.917 58.1037C622.358 57.9001 622.699 57.6184 622.94 57.2585C623.182 56.8939 623.305 56.4678 623.309 55.9801C623.305 55.4735 623.172 55.026 622.912 54.6378C622.656 54.2495 622.308 53.9441 621.868 53.7216C621.427 53.4991 620.923 53.3878 620.355 53.3878C619.782 53.3878 619.273 53.4991 618.828 53.7216C618.383 53.9441 618.032 54.2495 617.777 54.6378C617.521 55.026 617.396 55.4735 617.4 55.9801C617.396 56.4678 617.512 56.8939 617.748 57.2585C617.99 57.6184 618.333 57.9001 618.778 58.1037C619.223 58.3026 619.749 58.402 620.355 58.402ZM620.355 51.6335C620.838 51.6335 621.266 51.5365 621.64 51.3423C622.015 51.1482 622.308 50.8783 622.521 50.5327C622.739 50.187 622.85 49.7822 622.855 49.3182C622.85 48.8636 622.741 48.4659 622.528 48.125C622.32 47.7841 622.029 47.5213 621.655 47.3366C621.281 47.1473 620.847 47.0526 620.355 47.0526C619.853 47.0526 619.413 47.1473 619.034 47.3366C618.66 47.5213 618.369 47.7841 618.16 48.125C617.952 48.4659 617.85 48.8636 617.855 49.3182C617.85 49.7822 617.954 50.187 618.167 50.5327C618.381 50.8783 618.674 51.1482 619.048 51.3423C619.427 51.5365 619.863 51.6335 620.355 51.6335ZM628.276 60V45.4545H630.47V52.4006H630.648L636.749 45.4545H639.512L633.645 52.0028L639.533 60H636.891L632.189 53.5014L630.47 55.4759V60H628.276Z" fill="black"/>
<path d="M190 40L40 40V190" stroke="white" stroke-opacity="0.9" stroke-width="4"/>
<path d="M930 40L1080 40V190" stroke="white" stroke-opacity="0.9" stroke-width="4"/>
<path d="M930 640H1080V490" stroke="white" stroke-opacity="0.9" stroke-width="4"/>
<path d="M190 640H40V490" stroke="white" stroke-opacity="0.9" stroke-width="4"/>
<path d="M989.667 68L983 82.4H989L988.333 92L995 77.6H989L989.667 68Z" fill="white" fill-opacity="0.9" stroke="white" stroke-opacity="0.9" stroke-width="2" stroke-linecap="round" stroke-linejoin="round"/>
<rect x="1010.93" y="70" width="7" height="20" rx="2" fill="white" fill-opacity="0.9"/>
<rect x="1019.93" y="70" width="7" height="20" rx="2" fill="white" fill-opacity="0.9"/>
<rect x="1028.93" y="70" width="7" height="20" rx="2" fill="white" fill-opacity="0.9"/>
<rect x="1037.93" y="70" width="7" height="20" rx="2" fill="white" fill-opacity="0.9"/>
<path d="M1044.33 66H1011.67C1009.09 66 1007 68.0893 1007 70.6667V89.3333C1007 91.9107 1009.09 94 1011.67 94H1044.33C1046.91 94 1049 91.9107 1049 89.3333V70.6667C1049 68.0893 1046.91 66 1044.33 66Z" stroke="white" stroke-opacity="0.9" stroke-width="3" stroke-linecap="round" stroke-linejoin="round"/>
<path d="M1053.93 83V77" stroke="white" stroke-opacity="0.9" stroke-width="3" stroke-linecap="round" stroke-linejoin="round"/>
<line x1="82.0177" y1="173.75" x2="112.013" y2="174.145" stroke="white" stroke-width="2.49985"/>
<line x1="82.0164" y1="182.145" x2="98.6807" y2="182.364" stroke="white" stroke-width="2.49985"/>
<line x1="82.0164" y1="190.364" x2="98.6807" y2="190.583" stroke="white" stroke-width="2.49985"/>
<line x1="82.0164" y1="198.583" x2="98.6807" y2="198.803" stroke="white" stroke-width="2.49985"/>
<line x1="82.0164" y1="206.803" x2="103.68" y2="207.088" stroke="white" stroke-width="2.49985"/>
<line x1="82.0164" y1="215.088" x2="98.6807" y2="215.307" stroke="white" stroke-width="2.49985"/>
<line x1="82.0164" y1="223.307" x2="98.6807" y2="223.526" stroke="white" stroke-width="2.49985"/>
<line x1="82.0164" y1="231.526" x2="98.6807" y2="231.745" stroke="white" stroke-width="2.49985"/>
<line x1="82.0177" y1="239.745" x2="112.013" y2="240.14" stroke="white" stroke-width="2.49985"/>
<line x1="82.0164" y1="248.14" x2="98.6807" y2="248.359" stroke="white" stroke-width="2.49985"/>
<line x1="82.0164" y1="256.359" x2="98.6807" y2="256.578" stroke="white" stroke-width="2.49985"/>
<line x1="82.0164" y1="264.578" x2="98.6807" y2="264.798" stroke="white" stroke-width="2.49985"/>
<line x1="82.0164" y1="272.798" x2="103.68" y2="273.083" stroke="white" stroke-width="2.49985"/>
<line x1="82.0164" y1="281.083" x2="98.6807" y2="281.302" stroke="white" stroke-width="2.49985"/>
<line x1="82.0164" y1="289.302" x2="98.6807" y2="289.521" stroke="white" stroke-width="2.49985"/>
<line x1="82.0164" y1="297.521" x2="98.6807" y2="297.74" stroke="white" stroke-width="2.49985"/>
<line x1="82.0177" y1="305.74" x2="112.013" y2="306.135" stroke="white" stroke-width="2.49985"/>
<line x1="82.0164" y1="314.135" x2="98.6807" y2="314.354" stroke="white" stroke-width="2.49985"/>
<line x1="82.0164" y1="322.354" x2="98.6807" y2="322.573" stroke="white" stroke-width="2.49985"/>
<line x1="82.0164" y1="330.573" x2="98.6807" y2="330.793" stroke="white" stroke-width="2.49985"/>
<line x1="82.0164" y1="338.793" x2="103.68" y2="339.078" stroke="white" stroke-width="2.49985"/>
<line x1="82.0164" y1="347.078" x2="98.6807" y2="347.297" stroke="white" stroke-width="2.49985"/>
<line x1="82.0164" y1="355.297" x2="98.6807" y2="355.516" stroke="white" stroke-width="2.49985"/>
<line x1="82.0164" y1="363.516" x2="98.6807" y2="363.736" stroke="white" stroke-width="2.49985"/>
<line x1="82.0177" y1="371.735" x2="112.013" y2="372.13" stroke="white" stroke-width="2.49985"/>
<line x1="82.0164" y1="380.13" x2="98.6807" y2="380.349" stroke="white" stroke-width="2.49985"/>
<line x1="82.0164" y1="388.349" x2="98.6807" y2="388.569" stroke="white" stroke-width="2.49985"/>
<line x1="82.0164" y1="396.569" x2="98.6807" y2="396.788" stroke="white" stroke-width="2.49985"/>
<line x1="82.0164" y1="404.788" x2="103.68" y2="405.073" stroke="white" stroke-width="2.49985"/>
<line x1="82.0164" y1="413.073" x2="98.6807" y2="413.292" stroke="white" stroke-width="2.49985"/>
<line x1="82.0164" y1="421.292" x2="98.6807" y2="421.511" stroke="white" stroke-width="2.49985"/>
<line x1="82.0164" y1="429.511" x2="98.6807" y2="429.73" stroke="white" stroke-width="2.49985"/>
<line x1="82.0177" y1="437.73" x2="112.013" y2="438.125" stroke="white" stroke-width="2.49985"/>
<line x1="82.0164" y1="446.125" x2="98.6807" y2="446.344" stroke="white" stroke-width="2.49985"/>
<line x1="82.0164" y1="454.344" x2="98.6807" y2="454.564" stroke="white" stroke-width="2.49985"/>
<line x1="82.0164" y1="462.564" x2="98.6807" y2="462.783" stroke="white" stroke-width="2.49985"/>
<line x1="82.0164" y1="470.783" x2="103.68" y2="471.068" stroke="white" stroke-width="2.49985"/>
<line x1="82.0164" y1="479.068" x2="98.6807" y2="479.287" stroke="white" stroke-width="2.49985"/>
<line x1="82.0164" y1="487.287" x2="98.6807" y2="487.506" stroke="white" stroke-width="2.49985"/>
<line x1="82.0164" y1="495.506" x2="98.6807" y2="495.726" stroke="white" stroke-width="2.49985"/>
<line x1="82.0177" y1="503.725" x2="112.013" y2="504.12" stroke="white" stroke-width="2.49985"/>
<path d="M116.333 333L111 339L116.333 345V333Z" fill="white" stroke="white" stroke-width="1.33333" stroke-linecap="round" stroke-linejoin="round"/>
<path d="M82.4787 609.241C81.3565 609.237 80.3977 608.941 79.6023 608.354C78.8068 607.767 78.1984 606.912 77.777 605.79C77.3556 604.668 77.1449 603.316 77.1449 601.734C77.1449 600.158 77.3556 598.811 77.777 597.693C78.2031 596.576 78.8139 595.723 79.6094 595.136C80.4096 594.549 81.366 594.256 82.4787 594.256C83.5914 594.256 84.5455 594.552 85.3409 595.143C86.1364 595.731 86.7448 596.583 87.1662 597.7C87.5923 598.813 87.8054 600.158 87.8054 601.734C87.8054 603.321 87.5947 604.675 87.1733 605.797C86.7519 606.914 86.1435 607.769 85.348 608.361C84.5526 608.948 83.5961 609.241 82.4787 609.241ZM82.4787 607.345C83.4635 607.345 84.233 606.865 84.7869 605.903C85.3456 604.942 85.625 603.553 85.625 601.734C85.625 600.527 85.4972 599.507 85.2415 598.673C84.9905 597.835 84.6283 597.201 84.1548 596.77C83.6861 596.334 83.1274 596.116 82.4787 596.116C81.4986 596.116 80.7292 596.599 80.1705 597.565C79.6117 598.531 79.33 599.921 79.3253 601.734C79.3253 602.946 79.4508 603.972 79.7017 604.81C79.9574 605.643 80.3196 606.275 80.7884 606.706C81.2571 607.132 81.8205 607.345 82.4787 607.345ZM95.8931 593.773L91.2056 611.188H89.3093L93.9968 593.773H95.8931ZM102.505 594.256C103.154 594.26 103.793 594.379 104.423 594.611C105.053 594.843 105.621 595.222 106.127 595.747C106.639 596.273 107.046 596.983 107.349 597.878C107.657 598.768 107.813 599.876 107.818 601.202C107.818 602.475 107.69 603.609 107.434 604.604C107.179 605.593 106.812 606.429 106.333 607.111C105.86 607.793 105.285 608.311 104.608 608.666C103.931 609.021 103.168 609.199 102.321 609.199C101.454 609.199 100.685 609.028 100.012 608.688C99.3401 608.347 98.7932 607.875 98.3718 607.274C97.9504 606.668 97.6876 605.972 97.5835 605.186H99.7496C99.8917 605.811 100.181 606.318 100.616 606.706C101.056 607.089 101.625 607.281 102.321 607.281C103.386 607.281 104.217 606.817 104.814 605.889C105.41 604.956 105.711 603.654 105.716 601.983H105.602C105.356 602.39 105.048 602.741 104.679 603.034C104.314 603.328 103.904 603.555 103.45 603.716C102.995 603.877 102.51 603.957 101.994 603.957C101.156 603.957 100.394 603.751 99.707 603.339C99.0205 602.928 98.4736 602.362 98.0664 601.642C97.6592 600.922 97.4556 600.101 97.4556 599.178C97.4556 598.259 97.6639 597.426 98.0806 596.678C98.502 595.929 99.0891 595.338 99.842 594.902C100.6 594.462 101.487 594.246 102.505 594.256ZM102.512 596.102C101.958 596.102 101.459 596.24 101.014 596.514C100.574 596.784 100.225 597.151 99.9698 597.615C99.7141 598.074 99.5863 598.586 99.5863 599.149C99.5863 599.713 99.7094 600.224 99.9556 600.683C100.207 601.138 100.547 601.5 100.978 601.77C101.414 602.035 101.911 602.168 102.47 602.168C102.886 602.168 103.275 602.087 103.635 601.926C103.994 601.765 104.309 601.543 104.579 601.259C104.849 600.97 105.06 600.643 105.211 600.278C105.363 599.914 105.439 599.53 105.439 599.128C105.439 598.593 105.311 598.096 105.055 597.636C104.804 597.177 104.458 596.808 104.018 596.528C103.578 596.244 103.076 596.102 102.512 596.102Z" fill="white" fill-opacity="0.9"/>
<g filter="url(#filter0_d_14_1081)">
<rect x="1004" y="591" width="50" height="21.6667" rx="4.16667" fill="white" fill-opacity="0.6" shape-rendering="crispEdges"/>
<path opacity="0.8" d="M1014.2 599.144V600.091H1010.43V599.144H1014.2ZM1011.53 597.402H1012.65V604.333C1012.65 604.649 1012.69 604.886 1012.78 605.044C1012.88 605.198 1013 605.302 1013.14 605.356C1013.29 605.407 1013.45 605.432 1013.61 605.432C1013.74 605.432 1013.84 605.426 1013.92 605.413C1013.99 605.397 1014.06 605.384 1014.11 605.375L1014.33 606.379C1014.26 606.407 1014.15 606.436 1014.02 606.464C1013.88 606.496 1013.71 606.511 1013.5 606.511C1013.18 606.511 1012.87 606.444 1012.57 606.308C1012.27 606.172 1012.02 605.965 1011.82 605.688C1011.63 605.41 1011.53 605.059 1011.53 604.636V597.402ZM1018.02 606.587C1017.56 606.587 1017.14 606.5 1016.77 606.327C1016.39 606.15 1016.09 605.896 1015.87 605.564C1015.65 605.23 1015.54 604.826 1015.54 604.352C1015.54 603.936 1015.62 603.598 1015.79 603.339C1015.95 603.077 1016.17 602.872 1016.44 602.724C1016.72 602.575 1017.02 602.465 1017.35 602.392C1017.69 602.316 1018.02 602.256 1018.36 602.212C1018.8 602.155 1019.16 602.113 1019.44 602.084C1019.71 602.053 1019.92 602.001 1020.04 601.928C1020.17 601.855 1020.24 601.729 1020.24 601.549V601.511C1020.24 601.044 1020.11 600.681 1019.85 600.422C1019.6 600.164 1019.22 600.034 1018.7 600.034C1018.17 600.034 1017.75 600.151 1017.45 600.384C1017.14 600.618 1016.93 600.867 1016.81 601.133L1015.75 600.754C1015.94 600.312 1016.19 599.968 1016.51 599.722C1016.82 599.472 1017.17 599.299 1017.55 599.201C1017.93 599.1 1018.3 599.049 1018.66 599.049C1018.9 599.049 1019.17 599.078 1019.47 599.134C1019.78 599.188 1020.07 599.3 1020.36 599.471C1020.64 599.641 1020.88 599.898 1021.07 600.242C1021.26 600.587 1021.35 601.047 1021.35 601.625V606.417H1020.24V605.432H1020.18C1020.1 605.59 1019.98 605.759 1019.8 605.938C1019.62 606.118 1019.39 606.271 1019.1 606.398C1018.8 606.524 1018.44 606.587 1018.02 606.587ZM1018.19 605.583C1018.63 605.583 1019.01 605.497 1019.31 605.323C1019.61 605.149 1019.85 604.925 1020 604.651C1020.16 604.376 1020.24 604.087 1020.24 603.784V602.761C1020.19 602.818 1020.09 602.87 1019.92 602.918C1019.77 602.962 1019.58 603.001 1019.38 603.036C1019.17 603.068 1018.97 603.096 1018.77 603.121C1018.58 603.143 1018.42 603.162 1018.31 603.178C1018.01 603.216 1017.74 603.277 1017.49 603.363C1017.24 603.445 1017.04 603.569 1016.88 603.737C1016.73 603.901 1016.66 604.125 1016.66 604.409C1016.66 604.797 1016.8 605.091 1017.09 605.29C1017.38 605.486 1017.75 605.583 1018.19 605.583ZM1023.55 606.417V596.72H1024.66V600.299H1024.76C1024.84 600.173 1024.95 600.012 1025.1 599.816C1025.25 599.617 1025.46 599.441 1025.73 599.286C1026.01 599.128 1026.39 599.049 1026.86 599.049C1027.47 599.049 1028.01 599.202 1028.48 599.509C1028.95 599.815 1029.31 600.249 1029.57 600.811C1029.83 601.372 1029.97 602.035 1029.97 602.799C1029.97 603.569 1029.83 604.237 1029.57 604.802C1029.31 605.364 1028.95 605.8 1028.48 606.109C1028.02 606.415 1027.48 606.568 1026.88 606.568C1026.41 606.568 1026.04 606.491 1025.76 606.336C1025.48 606.178 1025.26 606 1025.11 605.801C1024.96 605.599 1024.84 605.432 1024.76 605.299H1024.62V606.417H1023.55ZM1024.64 602.78C1024.64 603.33 1024.72 603.814 1024.89 604.234C1025.05 604.651 1025.28 604.977 1025.59 605.214C1025.9 605.448 1026.28 605.564 1026.73 605.564C1027.19 605.564 1027.58 605.441 1027.9 605.195C1028.21 604.946 1028.45 604.611 1028.61 604.191C1028.77 603.768 1028.85 603.298 1028.85 602.78C1028.85 602.269 1028.77 601.808 1028.61 601.398C1028.46 600.984 1028.22 600.658 1027.91 600.418C1027.59 600.175 1027.2 600.053 1026.73 600.053C1026.27 600.053 1025.89 600.168 1025.58 600.399C1025.27 600.626 1025.04 600.945 1024.88 601.355C1024.72 601.762 1024.64 602.237 1024.64 602.78Z" fill="black"/>
<path d="M1047.79 604.628C1047.96 604.465 1047.96 604.201 1047.79 604.039L1045.14 601.387C1044.98 601.224 1044.72 601.224 1044.55 601.387C1044.39 601.55 1044.39 601.813 1044.55 601.976L1046.91 604.333L1044.55 606.69C1044.39 606.853 1044.39 607.117 1044.55 607.279C1044.72 607.442 1044.98 607.442 1045.14 607.279L1047.79 604.628ZM1035 604.333V604.75H1047.5V604.333V603.917H1035V604.333Z" fill="black"/>
<path d="M1034.71 598.205C1034.54 598.368 1034.54 598.632 1034.71 598.795L1037.36 601.446C1037.52 601.609 1037.78 601.609 1037.95 601.446C1038.11 601.284 1038.11 601.02 1037.95 600.857L1035.59 598.5L1037.95 596.143C1038.11 595.98 1038.11 595.716 1037.95 595.554C1037.78 595.391 1037.52 595.391 1037.36 595.554L1034.71 598.205ZM1035 598.5L1035 598.917L1047.5 598.917L1047.5 598.5L1047.5 598.083L1035 598.083L1035 598.5Z" fill="black"/>
</g>
<path d="M957.502 593.38H959.502V602.64H957.502V593.38ZM954.902 597.3H958.102V598.98H954.902V597.3ZM953.502 593.72H955.482V602.5H953.502V593.72ZM949.782 594.46H951.902C951.902 595.887 951.649 597.167 951.142 598.3C950.636 599.42 949.869 600.393 948.842 601.22C947.829 602.033 946.562 602.713 945.042 603.26L944.062 601.74C945.369 601.3 946.442 600.767 947.282 600.14C948.122 599.5 948.749 598.773 949.162 597.96C949.576 597.147 949.782 596.247 949.782 595.26V594.46ZM944.862 594.46H950.642V596.14H944.862V594.46ZM947.282 603.44H959.502V608.1H949.382V610.54H947.322V606.54H957.442V605.08H947.282V603.44ZM947.322 609.76H960.142V611.42H947.322V609.76ZM975.281 593.36H977.361V611.68H975.281V593.36ZM972.061 600.18H975.741V601.9H972.061V600.18ZM962.881 605.62H964.321C965.361 605.62 966.321 605.607 967.201 605.58C968.094 605.553 968.961 605.5 969.801 605.42C970.654 605.34 971.527 605.227 972.421 605.08L972.601 606.8C971.694 606.947 970.807 607.06 969.941 607.14C969.074 607.22 968.187 607.28 967.281 607.32C966.374 607.347 965.387 607.36 964.321 607.36H962.881V605.62ZM962.841 595H971.021V601.62H964.941V606.14H962.881V599.94H968.961V596.68H962.841V595ZM993.399 593.36H995.499V611.68H993.399V593.36ZM981.439 605.6H982.999C984.053 605.6 985.059 605.587 986.019 605.56C986.993 605.52 987.959 605.453 988.919 605.36C989.879 605.267 990.873 605.14 991.899 604.98L992.099 606.68C990.526 606.947 989.019 607.127 987.579 607.22C986.139 607.3 984.613 607.34 982.999 607.34H981.439V605.6ZM981.399 595H989.939V601.76H983.559V606.26H981.439V600.1H987.799V596.7H981.399V595Z" fill="white"/>
<defs>
<filter id="filter0_d_14_1081" x="995.667" y="582.667" width="66.6667" height="38.3334" filterUnits="userSpaceOnUse" color-interpolation-filters="sRGB">
<feFlood flood-opacity="0" result="BackgroundImageFix"/>
<feColorMatrix in="SourceAlpha" type="matrix" values="0 0 0 0 0 0 0 0 0 0 0 0 0 0 0 0 0 0 127 0" result="hardAlpha"/>
<feOffset/>
<feGaussianBlur stdDeviation="4.16667"/>
<feComposite in2="hardAlpha" operator="out"/>
<feColorMatrix type="matrix" values="0 0 0 0 1 0 0 0 0 1 0 0 0 0 1 0 0 0 0.2 0"/>
<feBlend mode="normal" in2="BackgroundImageFix" result="effect1_dropShadow_14_1081"/>
<feBlend mode="normal" in="SourceGraphic" in2="effect1_dropShadow_14_1081" result="shape"/>
</filter>
<clipPath id="clip0_14_1081">
<rect width="250" height="150" fill="white" transform="translate(435 265)"/>
</clipPath>
</defs>
</svg>
